<svg id="Group_6671" data-name="Group 6671" xmlns="http://www.w3.org/2000/svg" xmlns:xlink="http://www.w3.org/1999/xlink" width="34.295" height="34.365" viewBox="0 0 34.295 34.365">
  <defs>
    <clipPath id="clip-path">
      <rect id="Rectangle_1652" data-name="Rectangle 1652" width="34.295" height="34.365" fill="none"/>
    </clipPath>
    <clipPath id="clip-path-2">
      <rect id="Rectangle_1651" data-name="Rectangle 1651" width="34.295" height="34.365" transform="translate(0 0)" fill="none"/>
    </clipPath>
    <clipPath id="clip-path-3">
      <rect id="Rectangle_1649" data-name="Rectangle 1649" width="27.151" height="33.373" transform="translate(0.283 0.992)" fill="none"/>
    </clipPath>
    <clipPath id="clip-path-4">
      <rect id="Rectangle_1650" data-name="Rectangle 1650" width="11.977" height="23.75" transform="translate(22.318 10.615)" fill="none"/>
    </clipPath>
  </defs>
  <g id="Group_6688" data-name="Group 6688" clip-path="url(#clip-path)">
    <g id="Group_6687" data-name="Group 6687">
      <g id="Group_6686" data-name="Group 6686" clip-path="url(#clip-path-2)">
        <g id="Group_6682" data-name="Group 6682" style="mix-blend-mode: multiply;isolation: isolate">
          <g id="Group_6681" data-name="Group 6681">
            <g id="Group_6680" data-name="Group 6680" clip-path="url(#clip-path-3)">
              <path id="Path_624" data-name="Path 624" d="M21.889,23.875a8.194,8.194,0,0,1,.127-.885c.028-.14.06-.278.1-.412.027-.1.054-.2.086-.291a3.927,3.927,0,0,1,.266-.625l.007-.016a2.976,2.976,0,0,1,.39-.531c.056-.063.12-.119.183-.177a2.659,2.659,0,0,1,.377-.288c.077-.048.154-.095.238-.137a3.172,3.172,0,0,1,.516-.193c.087-.025.166-.057.259-.076a4.561,4.561,0,0,1,.955-.1,3.457,3.457,0,0,1,1.209.2,2.3,2.3,0,0,1,.836.533h0L21.41,14.825a2.318,2.318,0,0,0-.921-.555L15.632,9.393l-.02,2.588,2.341,2.35a2.931,2.931,0,0,0-.317.135,2.3,2.3,0,0,0-.238.137,2.518,2.518,0,0,0-.377.288c-.063.057-.127.114-.183.176-.029.032-.066.057-.093.09a3.048,3.048,0,0,0-.3.437v0a.163.163,0,0,0-.009.019,3.753,3.753,0,0,0-.222.48c-.017.046-.027.1-.042.143-.033.094-.06.192-.087.29s-.054.162-.073.248c-.012.052-.013.111-.024.164a8.286,8.286,0,0,0-.127.888c0,.042-.014.08-.017.123l0,.048c-.023.315-.035.636-.037.96l-.072,9.357h-3.5l.1-12.877-2.6-2.609a3.393,3.393,0,0,0,.408-.051c.079-.018.152-.048.228-.071a3.3,3.3,0,0,0,.454-.161c.084-.038.162-.086.242-.13a3.565,3.565,0,0,0,.368-.232c.077-.057.148-.118.22-.181a3.245,3.245,0,0,0,.3-.3c.035-.039.078-.069.111-.109s.059-.091.091-.134q.081-.109.153-.225c.029-.047.066-.088.093-.136.039-.07.068-.147.1-.22.026-.053.053-.105.075-.16.011-.026.026-.05.036-.076a3.421,3.421,0,0,0,.138-.459l0-.028c.007-.032.008-.065.014-.1a3.454,3.454,0,0,0,.056-.369c.006-.079.009-.159.01-.24a3.3,3.3,0,0,0-.015-.346c0-.043-.023-.08-.029-.123a3.354,3.354,0,0,0-.16-.682c-.012-.034-.012-.073-.026-.107,0-.01-.011-.018-.016-.029a3.405,3.405,0,0,0-.384-.7c-.013-.017-.019-.039-.031-.056a3.415,3.415,0,0,0-.324-.376L5.834.992a3.419,3.419,0,0,1,.354.432,3.362,3.362,0,0,1,.385.7c.017.043.025.091.041.135a3.365,3.365,0,0,1,.161.683,3.434,3.434,0,0,1,.044.469,3.5,3.5,0,0,1-.066.61c-.006.031-.008.064-.015.095a3.316,3.316,0,0,1-.179.565c-.022.053-.049.105-.073.158a3.85,3.85,0,0,1-.2.357c-.049.077-.1.151-.153.224s-.132.165-.2.244a3.492,3.492,0,0,1-.3.3c-.072.063-.144.125-.221.181a3.39,3.39,0,0,1-.367.232c-.08.045-.158.093-.242.131a3.489,3.489,0,0,1-.454.161c-.077.022-.15.053-.228.07A3.353,3.353,0,0,1,.987,5.822L6.3,11.155,6.168,28.318H.283l6.025,6.047h5.885l.028-3.669,3.655,3.669h5.885l.071-9.356c0-.324.014-.645.037-.96.005-.059.015-.115.02-.174" fill="#ccc"/>
            </g>
          </g>
        </g>
        <g id="Group_6685" data-name="Group 6685" style="mix-blend-mode: multiply;isolation: isolate">
          <g id="Group_6684" data-name="Group 6684">
            <g id="Group_6683" data-name="Group 6683" clip-path="url(#clip-path-4)">
              <path id="Path_625" data-name="Path 625" d="M34.208,21.592c-.005-.052-.016-.1-.021-.148q-.063-.627-.175-1.208c-.018-.094-.033-.189-.053-.28a9.028,9.028,0,0,0-.35-1.214c-.011-.029-.015-.063-.026-.092-.047-.121-.106-.231-.158-.347s-.089-.209-.14-.309c-.085-.164-.182-.318-.281-.471-.049-.078-.093-.162-.147-.237-.008-.011-.014-.025-.023-.036a5.01,5.01,0,0,0-.5-.588l-6.025-6.047a4.953,4.953,0,0,1,.523.624c.054.075.1.159.148.237.1.153.2.306.28.471.051.1.094.205.14.308.065.144.129.289.185.44a9.119,9.119,0,0,1,.35,1.213c.019.092.035.187.052.28q.111.582.175,1.208c.007.071.017.139.024.21.065.742.09,1.522.084,2.335l-.079,10.377H22.318l6.024,6.047h5.873l.079-10.377c.006-.813-.018-1.593-.084-2.334,0-.02,0-.042,0-.062" fill="#ccc"/>
            </g>
          </g>
        </g>
        <path id="Path_626" data-name="Path 626" d="M3.435,0A3.375,3.375,0,0,1,6.818,3.409,3.437,3.437,0,0,1,3.383,6.818,3.383,3.383,0,0,1,0,3.409,3.445,3.445,0,0,1,3.435,0" fill="#0077b7"/>
        <path id="Path_627" data-name="Path 627" d="M6.312,9.394,6.168,28.318H.283L.427,9.394Z" fill="#0077b7"/>
        <path id="Path_628" data-name="Path 628" d="M21.284,8.933c5.96,0,7.025,3.907,6.986,9.008l-.079,10.377H22.318l.07-9.2c.017-2.2-.011-5.027-3.022-5.027-3.061,0-3.539,2.389-3.558,4.865l-.072,9.357H9.851L10,9.393h5.636l-.02,2.588H15.7a6.237,6.237,0,0,1,5.585-3.048" fill="#0077b7"/>
      </g>
    </g>
  </g>
</svg>
