<svg id="Group_6672" data-name="Group 6672" xmlns="http://www.w3.org/2000/svg" xmlns:xlink="http://www.w3.org/1999/xlink" width="38.039" height="28.478" viewBox="0 0 38.039 28.478">
  <defs>
    <clipPath id="clip-path">
      <rect id="Rectangle_1656" data-name="Rectangle 1656" width="38.039" height="28.478" fill="none"/>
    </clipPath>
    <clipPath id="clip-path-2">
      <rect id="Rectangle_1655" data-name="Rectangle 1655" width="38.039" height="28.478" transform="translate(0 0)" fill="none"/>
    </clipPath>
    <clipPath id="clip-path-3">
      <rect id="Rectangle_1653" data-name="Rectangle 1653" width="16.005" height="16.399" transform="translate(12.033 5.697)" fill="#fff"/>
    </clipPath>
    <clipPath id="clip-path-4">
      <rect id="Rectangle_1654" data-name="Rectangle 1654" width="36.37" height="26.941" transform="translate(1.67 1.537)" fill="none"/>
    </clipPath>
  </defs>
  <g id="Group_6698" data-name="Group 6698" clip-path="url(#clip-path)">
    <g id="Group_6697" data-name="Group 6697">
      <g id="Group_6696" data-name="Group 6696" clip-path="url(#clip-path-2)">
        <g id="Group_6692" data-name="Group 6692" style="mix-blend-mode: multiply;isolation: isolate">
          <g id="Group_6691" data-name="Group 6691">
            <g id="Group_6690" data-name="Group 6690" clip-path="url(#clip-path-3)">
              <path id="Path_629" data-name="Path 629" d="M28.038,16.932l-6.024-6.047c-3.322-1.742-6.606-3.459-9.9-5.189-.026,3.459-.053,6.881-.079,10.352L18.058,22.1c.026-3.472.715-4.3.741-7.754l-.114-.446.114-.738c3.3,1.729,5.918,2.032,9.239,3.774" fill="#fff"/>
            </g>
          </g>
        </g>
        <g id="Group_6695" data-name="Group 6695" style="mix-blend-mode: multiply;isolation: isolate">
          <g id="Group_6694" data-name="Group 6694">
            <g id="Group_6693" data-name="Group 6693" clip-path="url(#clip-path-4)">
              <path id="Path_630" data-name="Path 630" d="M38.01,18.7c.021-.64.029-1.287.029-1.932v-.344q-.006-.947-.044-1.856c0-.122-.011-.238-.016-.357-.03-.616-.067-1.215-.118-1.774v-.024c-.02-.218-.045-.419-.069-.626-.015-.136-.028-.28-.044-.41-.03-.228-.064-.435-.1-.645-.016-.1-.03-.212-.047-.308-.038-.21-.08-.394-.122-.58-.018-.076-.032-.165-.05-.236a6.06,6.06,0,0,0-.2-.653l-.017-.044c-.014-.035-.037-.061-.052-.1a3.962,3.962,0,0,0-.4-.736c-.021-.031-.033-.071-.055-.1a3.487,3.487,0,0,0-.341-.4L30.342,1.537a3.675,3.675,0,0,1,.4.5,3.925,3.925,0,0,1,.4.738c.021.049.05.088.068.139a5.968,5.968,0,0,1,.2.652c.022.088.041.2.062.294.038.169.076.332.11.521.019.107.035.232.052.345.032.2.064.394.092.61.017.13.03.274.045.41.024.214.049.423.07.649.051.56.088,1.162.117,1.778.006.117.012.232.017.35.024.606.039,1.228.043,1.859,0,.115,0,.231,0,.347,0,.64-.007,1.284-.028,1.919,0,.023,0,.046,0,.068-.022.646-.059,1.277-.1,1.891-.011.152-.021.305-.033.454s-.024.276-.037.412c-.022.237-.047.469-.072.7-.015.13-.03.26-.046.386-.029.231-.061.452-.094.67-.017.106-.032.216-.049.319-.049.291-.1.569-.158.827,0,.016-.007.035-.01.051-.059.261-.123.5-.189.716-.019.061-.038.117-.057.175a4.91,4.91,0,0,1-.208.546,3.8,3.8,0,0,1-.229.388c-.053.084-.107.168-.167.246s-.108.128-.163.19a3.732,3.732,0,0,1-.386.379c-.056.047-.11.1-.169.141a4.825,4.825,0,0,1-.629.41c-1.08.557-7.344.821-13.481.821-5.649,0-11.19-.223-12.487-.647a3.837,3.837,0,0,1-1.548-.929L7.694,26.9a3.853,3.853,0,0,0,1.547.93c1.3.423,6.838.646,12.488.646,6.137,0,12.4-.264,13.48-.821a4.837,4.837,0,0,0,.63-.41c.058-.044.112-.093.168-.14a3.752,3.752,0,0,0,.387-.38c.032-.036.071-.063.1-.1s.039-.061.061-.089c.06-.078.114-.163.168-.248.038-.058.082-.11.117-.172s.076-.141.111-.215c.047-.1.093-.209.137-.326.025-.067.047-.146.071-.218s.039-.116.058-.178c.066-.218.129-.45.187-.708v-.006c0-.016.006-.035.01-.051.057-.258.109-.536.158-.828.018-.1.033-.213.049-.319.033-.217.065-.438.095-.669q.024-.192.045-.39c.026-.226.05-.456.072-.692.013-.137.026-.274.037-.414.007-.08.015-.156.021-.237s.007-.146.012-.217c.045-.615.082-1.246.1-1.893,0-.018,0-.037,0-.055" fill="#ccc"/>
            </g>
          </g>
        </g>
        <path id="Path_631" data-name="Path 631" d="M31.207,2.909c1.146,3.024,1.1,14.035-.279,16.946a3.855,3.855,0,0,1-1.742,1.755c-1.08.557-7.344.82-13.481.82-5.649,0-11.19-.223-12.487-.646A3.712,3.712,0,0,1,.772,19.4C-.263,16.471-.493,4.228,1.578,1.814A4,4,0,0,1,4.264.4C6.727.13,11.476,0,16.16,0c5.832,0,11.564.2,12.651.6a3.774,3.774,0,0,1,2.4,2.314M12.033,16.048c3.323-1.73,6.633-3.434,9.981-5.164-3.322-1.742-6.606-3.458-9.9-5.188-.026,3.459-.052,6.881-.079,10.352" fill="#cc1e20"/>
      </g>
    </g>
  </g>
</svg>
